# xmcd CD database file
#
# Track frame offsets:
#	150
#	26782
#	59412
#	95327
#	130905
#	144645
#
# Disc length: 2342 seconds
#
# Revision: 2
# Processed by: cddbd v1.4PL0 Copyright (c) Steve Scherf et al.
# Submitted via: CDex 1.50Beta6
#
DISCID=53092406
DTITLE=Tal Farlow - On Stage
DYEAR=1981
DGENRE=Jazz
TTITLE0=The one I love belongs to somebody else
TTITLE1=A Time For Love - My Romance
TTITLE2=Lullaby of Birdland
TTITLE3=My Shining Hour
TTITLE4=The very thought of you
TTITLE5=Rose Room - In A Mellow Tone
EXTD=YEAR: 1981
EXTT0=
EXTT1=
EXTT2=
EXTT3=
EXTT4=
EXTT5=
PLAYORDER=
